<svg width="20" height="20" viewBox="0 0 20 20" fill="none" xmlns="http://www.w3.org/2000/svg">
<path d="M9.99996 12.9167C9.72478 12.9196 9.45802 12.8218 9.24996 12.6417L5.72496 9.51753C5.52862 9.35334 5.41516 9.11056 5.41516 8.85462C5.41516 8.59867 5.52862 8.35589 5.72496 8.1917C6.15719 7.82355 6.79272 7.82355 7.22496 8.1917L10.0025 10.6525L12.7791 8.1917C13.2114 7.82355 13.8469 7.82355 14.2791 8.1917C14.4755 8.35589 14.5889 8.59867 14.5889 8.85462C14.5889 9.11056 14.4755 9.35334 14.2791 9.51753L10.7541 12.6417C10.545 12.8228 10.2766 12.9207 9.99996 12.9167Z" fill="#AAAAAA"/>
</svg>
